<svg xmlns="http://www.w3.org/2000/svg" fill="none" viewBox="0 0 205 53" height="53" width="205">
<path fill="#502314" d="M33.1538 14.9059C27.4701 14.9059 23.1111 19.094 23.1111 26.4871C23.1111 33.8803 27.4701 38.0683 33.1538 38.0683C38.8376 38.0683 43.1966 33.8803 43.1966 26.4871C43.1966 19.094 38.8803 14.9059 33.1538 14.9059V14.9059ZM33.1538 20.8461C33.9658 20.8461 34.3077 21.5299 34.3077 26.4871C34.3077 31.4444 34.0085 32.1282 33.1538 32.1282C32.2991 32.1282 32 31.4444 32 26.4871C32 21.4871 32.3419 20.8461 33.1538 20.8461ZM13.1966 31.9572C13.1966 31.9572 13.7094 38.0683 14.5641 40.8034C16.0598 45.5897 19.3504 50.8034 25.6325 50.8034C30.2906 50.8034 34.0513 48.282 34.0513 43.6666C34.0513 40.4188 31.8718 38.7521 29.735 38.7521C27.1709 38.7521 25.5043 40.4615 25.5043 42.641C25.5043 44.1367 26.1453 44.8205 26.6581 45.376C26.9573 45.7179 27.2137 45.9743 27.2137 46.3589C27.2137 46.8718 26.7863 47.1709 26.2308 47.1709C25.2051 47.1709 23.6239 45.4188 23.5385 43.4957C23.3248 36.1453 22.2137 32.1282 21.7863 31.3589C20.718 29.3077 19.6068 28.453 17.1709 27.5555C16.9573 27.47 16.8718 27.3418 16.8718 27.2564C16.8718 27.1282 17 27 17.1709 26.9572C19.8632 26.2307 21.1026 24.4786 21.1026 21.9145C21.1026 17.3846 17.5556 15.376 12.9829 15.376H3.79487C2.51282 15.376 2 16.0171 2 17.0427C2 17.47 2.12821 18.0256 2.29915 18.5812C2.7265 19.9487 2.81197 22.2564 2.81197 26.4871C2.81197 30.7179 2.76923 32.9401 2.29915 34.3931C2.12821 34.9487 2 35.4615 2 35.9316C2 36.9572 2.51282 37.5983 3.79487 37.5983H10.547C11.4872 37.5983 12.0427 36.9145 12.0427 35.8461C12.0427 35.2051 11.8291 34.7777 11.5727 34.3077C11.5299 34.2222 11.4872 34.094 11.4444 34.0085C11.1453 33.4102 10.8889 32.5128 10.8889 30.8461C10.8889 30.0769 11.188 29.5213 11.8718 29.5213C12.7265 29.5641 12.9829 30.4615 13.1966 31.9572V31.9572ZM11.5727 20.6752C12.3846 20.6752 13.2393 21.188 13.2393 22.5983C13.2393 24.0085 12.3419 24.5641 11.5727 24.5641C11.1026 24.5641 10.8462 24.3931 10.8462 23.8376V21.4017C10.8462 20.8461 11.0171 20.6752 11.5727 20.6752V20.6752ZM47.5128 36.0171C47.5128 35.5897 47.641 35.2478 47.7692 34.9059C48.1111 34.0085 48.3675 32.9829 48.3675 31.4444V31.0171C48.3675 30.0769 48.2393 29.4786 47.7265 28.4957C46.5299 26.2307 45.2906 23.9658 43.5812 21.0171C43.2821 20.5042 42.9829 20.0769 42.7692 19.735C42.2137 18.923 41.8291 18.4102 41.8291 17.3846C41.8291 16.5299 42.4274 15.4188 44.0085 15.4188H51.9145C53.1538 15.4188 53.7949 16.3589 53.7949 17.2564C53.7949 18.0683 53.5812 18.4957 53.3675 18.923C53.1966 19.2649 53.0256 19.5641 53.0256 20.0341C53.0256 20.6752 53.1966 21.0598 53.453 21.6581C53.6667 22.1282 53.8803 22.47 54.1795 22.47C54.4786 22.47 54.6068 22.2564 54.906 21.6581C55.2051 21.0598 55.3761 20.5897 55.3761 20.0341C55.3761 19.5213 55.2479 19.094 55.1197 18.6666C54.9915 18.2393 54.8632 17.8119 54.8632 17.2991C54.8632 16.0598 55.7179 15.376 56.7863 15.376H61.3162C62.3846 15.376 63.1111 16.1025 63.1111 17.2136C63.1111 18.1538 62.7265 18.6666 62.1709 19.4359C61.8718 19.8205 61.5299 20.3333 61.1453 20.9743C60.5043 22 59.8632 23.2393 59.2222 24.3931C59.0085 24.735 58.8376 25.1196 58.6667 25.4615C58.5812 25.5897 58.5385 25.7179 58.453 25.8034C57.4274 27.6837 56.6581 29.094 56.6581 30.9743V31.4017C56.6581 32.9401 56.9573 33.9658 57.2564 34.8632C57.3846 35.2051 57.5128 35.547 57.5128 36.0171C57.5128 36.9572 56.9145 37.5983 55.9316 37.5983H49.0513C48.1111 37.5983 47.5128 36.9572 47.5128 36.0171V36.0171ZM59.6496 34.3931C59.4359 34.8205 59.3504 35.2906 59.3504 35.7179C59.3504 36.7863 59.9915 37.641 61.3162 37.641H66.359C67.4274 37.641 67.8974 36.7863 67.8974 35.9743C67.8974 35.6752 67.812 35.4188 67.7265 35.1624C67.5128 34.6923 67.4274 34.2222 67.4274 33.8803C67.4274 33.3247 67.7265 32.9401 68.2393 32.8974C68.7949 32.8547 68.8803 32.8547 69.4359 32.8974C69.9915 32.9401 70.2051 33.282 70.2051 33.7521C70.2051 34.094 70.0769 34.5641 69.8632 35.0341C69.735 35.3333 69.6496 35.6752 69.6496 35.9743C69.6496 36.829 70.1624 37.641 71.359 37.641H78.7949C79.906 37.641 80.6752 36.7436 80.6752 35.6324C80.6752 35.2906 80.5897 34.9059 80.4188 34.5213C79.2222 31.7863 76.188 23.1538 74.5214 18.0683C73.8376 16.0171 72.641 15.376 71.0598 15.376H68.3675C66.8291 15.376 65.7607 16.0171 65.0769 18.1538C63.6667 22.8547 61.4017 30.1624 59.6496 34.3931V34.3931ZM69.8205 26.9145C69.8632 27.1709 69.6923 27.2564 69.4359 27.2564H68.1538C67.9829 27.2564 67.8547 27.1709 67.8974 27L67.9829 26.5726C68.1966 25.6324 68.3675 24.6495 68.453 24.3077C68.5385 24.0512 68.6239 23.923 68.8376 23.923C69.0513 23.923 69.1368 24.0512 69.2222 24.3077C69.3504 24.6495 69.6923 25.9316 69.8205 26.9145ZM81.4017 35.9743C81.4017 35.5042 81.5299 34.9914 81.7009 34.4359C82.1282 32.9829 82.2137 30.7606 82.2137 26.5299C82.2137 22.2991 82.1282 19.9914 81.7009 18.6239C81.5299 18.0683 81.4017 17.5128 81.4017 17.0854C81.4017 16.0598 81.9145 15.4188 83.1966 15.4188H89.4359C90.8462 15.4188 91.5727 16.1025 91.5727 17.1709C91.5727 17.9401 91.3162 18.4102 90.9744 19.0085C90.6325 19.6068 90.2906 20.4615 90.2479 21.6153C90.1624 22.8974 90.1624 24.2222 90.1624 25.5042C90.1624 26.9572 90.2051 28.4102 90.2479 29.9059C90.3333 31.0171 90.8034 31.6153 91.9145 31.6153C92.9402 31.6153 93.4103 30.9316 93.9231 30.2478C94.4359 29.5213 94.9487 28.7521 96.2308 28.7521C98.1111 28.7521 98.6667 29.9914 98.4103 31.4017C98.1966 32.47 98.0684 33.5812 97.9829 34.9059C97.8974 36.7436 97.0427 37.6837 95.2051 37.6837H83.3675C82.0855 37.5983 81.4017 37 81.4017 35.9743V35.9743ZM104.35 34.3931C104.179 34.9487 104.051 35.4615 104.051 35.9316C104.051 36.9572 104.564 37.5983 105.846 37.5983H112.043C113.453 37.5983 114.009 36.9145 114.009 35.8461C114.009 35.1196 113.795 34.6068 113.496 34.0085C113.111 33.1965 112.855 32.3418 112.855 30.7179C112.855 29.6068 113.325 29.3504 114.094 29.3504C118.838 29.3504 122.085 27.5128 122.085 22.5128C122.085 17.5128 118.795 15.3333 114.222 15.3333H105.803C104.521 15.3333 104.009 15.9743 104.009 17C104.009 17.4273 104.137 17.9829 104.308 18.5384C104.735 19.9059 104.821 22.2136 104.821 26.4444C104.821 30.6752 104.778 32.9401 104.35 34.3931V34.3931ZM113.581 20.6752C114.393 20.6752 115.248 21.188 115.248 22.5983C115.248 24.0085 114.35 24.5641 113.581 24.5641C113.111 24.5641 112.855 24.3931 112.855 23.8376V21.4017C112.855 20.8461 113.068 20.6752 113.581 20.6752V20.6752ZM122.897 35.9743C122.897 35.5042 123.026 34.9914 123.197 34.4359C123.624 32.9829 123.709 30.7606 123.709 26.5299C123.709 22.2991 123.624 19.9914 123.197 18.6239C123.026 18.0683 122.897 17.5128 122.897 17.0854C122.897 16.0598 123.41 15.4188 124.692 15.4188H135.547C137.641 15.4188 138.538 16.188 138.538 17.5983C138.538 18.282 138.667 19.2649 138.838 19.9059C139.265 21.3589 138.368 22.6837 136.786 22.6837C135.761 22.6837 135.205 22.2564 134.65 21.829C134.137 21.4444 133.667 21.1025 132.94 21.1025C132.299 21.1025 131.744 21.5299 131.744 22.4273C131.744 23.3247 132.342 23.7094 133.154 23.7094C133.667 23.7094 133.923 23.6239 134.179 23.4957C134.436 23.4102 134.692 23.282 135.248 23.282C136.615 23.282 137.342 24.3931 137.342 26.188C137.342 27.9829 136.615 29.3504 135.248 29.3504C134.692 29.3504 134.436 29.1794 134.179 29.0085C133.923 28.8376 133.667 28.6666 133.154 28.6666C132.427 28.6666 131.744 29.094 131.744 29.9487C131.744 30.9743 132.427 31.4444 133.453 31.4444C134.778 31.4444 135.333 30.8889 135.846 30.376C136.316 29.9059 136.829 29.4359 137.855 29.4359C139.521 29.4359 140.205 30.6752 139.906 32.2136C139.735 33.0256 139.65 34.0085 139.65 34.8205C139.65 36.6581 138.453 37.5983 136.231 37.5983H124.65C123.41 37.5983 122.897 37 122.897 35.9743V35.9743ZM141.103 34.3931C140.932 34.9487 140.803 35.4615 140.803 35.9316C140.803 36.9572 141.316 37.5983 142.598 37.5983H148.795C150.205 37.5983 150.761 36.9145 150.761 35.8461C150.761 35.376 150.547 34.8632 150.376 34.3504C150.333 34.2222 150.248 34.0512 150.205 33.923C149.906 33.0683 149.65 31.8718 149.65 30.8461C149.65 30.0769 149.949 29.5213 150.718 29.5213C151.402 29.5213 151.829 30.0341 151.829 31.1453C151.829 32.3846 151.786 33.282 151.786 34.0085C151.786 34.5213 151.744 34.9487 151.744 35.376C151.744 36.829 152.556 37.5555 154.179 37.5555H158.923C160.675 37.5555 161.316 36.7008 161.316 35.5042C161.316 34.8632 161.145 34.4786 160.932 33.923C160.803 33.5812 160.632 33.1538 160.462 32.5983C159.778 30.2906 159.051 28.453 157.171 27.4273C156.915 27.2991 156.829 27.1709 156.829 27C156.829 26.8718 156.957 26.7436 157.171 26.6581C158.581 25.9743 159.906 24.5641 159.906 21.7863C159.906 17.2564 156.359 15.2478 151.786 15.2478H142.641C141.359 15.2478 140.846 15.8889 140.846 16.9145C140.846 17.3418 140.974 17.8974 141.145 18.453C141.573 19.8205 141.658 22.1282 141.658 26.3589C141.658 30.5897 141.53 32.9401 141.103 34.3931V34.3931ZM150.333 20.6752C151.145 20.6752 152 21.188 152 22.5983C152 24.0085 151.103 24.5641 150.333 24.5641C149.863 24.5641 149.607 24.3931 149.607 23.8376V21.4017C149.607 20.8461 149.821 20.6752 150.333 20.6752V20.6752ZM161.957 35.9743C161.957 35.5042 162.085 34.9914 162.256 34.4359C162.684 32.9829 162.769 30.7606 162.769 26.5299C162.769 22.2991 162.684 19.9914 162.256 18.6239C162.085 18.0683 161.957 17.5128 161.957 17.0854C161.957 16.0598 162.47 15.4188 163.752 15.4188H169.991C171.231 15.4188 171.829 16.1453 171.829 17.0854C171.829 17.5983 171.701 17.9829 171.487 18.6239C171.103 19.7777 171.017 20.8889 171.017 23.5384C171.017 23.8376 171.188 24.0512 171.444 24.0512C171.615 24.0512 171.786 23.9658 172 23.7521C173.154 22.5128 173.538 21.9572 174.308 20.8034C174.521 20.5042 174.65 20.0341 174.65 19.6068C174.65 19.0085 174.436 18.6666 174.265 18.3247C174.094 17.9829 173.88 17.641 173.88 17.0854C173.88 16.2307 174.436 15.4188 175.675 15.4188H181.957C183.026 15.4188 183.538 16.2307 183.538 17.0854C183.538 17.641 183.368 18.2393 182.427 19.1367C181.145 20.3333 179.863 21.9145 178.538 23.5384C178.368 23.7521 178.239 24.0512 178.239 24.3504C178.239 24.5213 178.282 24.735 178.368 24.9059C179.735 28.0256 182.769 33.453 183.923 34.8205C184.222 35.2478 184.436 35.7606 184.436 36.2307C184.436 37 183.88 37.6837 182.641 37.6837H174.863C173.838 37.6837 173.325 36.6153 173.239 35.2906C173.197 33.6239 172.684 31.6581 172.043 29.9059C171.915 29.6068 171.744 29.4786 171.53 29.4786C171.231 29.4786 171.017 29.6923 171.017 30.1196C171.017 31.1025 171.103 32.5555 171.444 33.8376C171.615 34.5641 171.786 35.2051 171.786 36.0171C171.786 36.9572 171.188 37.6837 169.991 37.6837H163.709C162.47 37.5983 161.957 37 161.957 35.9743V35.9743ZM185.162 33.5812C185.162 35.2906 185.162 36.6153 187.385 37.3846C188.966 37.9401 190.376 38.0683 192.897 38.0683C199.009 38.0683 202 34.9914 202 30.547C202 26.4017 200.077 24.5213 195.718 23.0683C193.667 22.3846 193.239 22.0427 193.239 21.5299C193.239 21.1025 193.581 20.8461 194.179 20.8461C194.863 20.8461 195.462 21.1453 196.829 22.5128C197.47 23.1965 198.239 23.453 199.009 23.453C200.12 23.453 201.06 22.7692 201.06 21.4871C201.06 21.188 201.017 20.9316 200.932 20.6324C200.504 19.1794 200.376 18.453 200.248 17.2991C199.949 15.2478 197.214 14.9487 193.667 14.9487C188.923 14.9487 185.205 17.2136 185.205 21.829C185.205 26.4444 188.154 28.3247 190.761 29.2222C193.197 30.0769 193.538 30.4188 193.538 31.0171C193.538 31.5726 193.111 31.829 192.47 31.829C191.316 31.829 190.12 31.2735 189.051 29.7777C188.496 29.0512 187.812 28.7521 187.171 28.7521C186.06 28.7521 185.034 29.6068 185.034 30.8034C185.034 30.9316 185.034 31.0598 185.077 31.2307C185.205 32.0854 185.205 32.8547 185.162 33.5812V33.5812Z" clip-rule="evenodd" fill-rule="evenodd"></path>
<path fill="#FFAA00" d="M41.017 3.36752L39.564 4.39316L38.111 5.4188C37.8973 5.58974 37.6409 5.63248 37.3845 5.58974C37.1281 5.54701 36.9144 5.46154 36.7007 5.24786L35.4187 3.83761L34.1366 2.42735C33.8802 2.12821 33.5383 2 33.1965 2C32.8546 2 32.5127 2.12821 32.2563 2.42735L30.9742 3.83761L29.6922 5.24786C29.5212 5.46154 29.2648 5.54701 29.0084 5.58974C28.752 5.63248 28.4956 5.54701 28.2819 5.4188L26.8289 4.39316L25.3759 3.36752C24.9913 3.11111 24.564 3.11111 24.2221 3.32479C23.8802 3.53846 23.6665 3.88034 23.7093 4.35043L24.1366 8.53846L24.564 12.7265C24.6067 12.9829 24.7349 13.2393 24.9059 13.4103C25.0768 13.5812 25.3332 13.6667 25.6324 13.6667H40.7606C41.017 13.6667 41.2734 13.5812 41.4871 13.4103C41.658 13.2393 41.7862 12.9829 41.8289 12.7265L42.2563 8.53846L42.6836 4.35043C42.7264 3.88034 42.5127 3.53846 42.1708 3.32479C41.7862 3.11111 41.3589 3.11111 41.017 3.36752V3.36752Z"></path>
</svg>
