<svg xmlns="http://www.w3.org/2000/svg" fill="none" viewBox="0 0 205 53" height="53" width="205">
<path fill="#F5EBDC" d="M33.1538 14.9058C27.4701 14.9058 23.1111 19.0938 23.1111 26.487C23.1111 33.8801 27.4701 38.0682 33.1538 38.0682C38.8376 38.0682 43.1966 33.8801 43.1966 26.487C43.1966 19.0938 38.8803 14.9058 33.1538 14.9058V14.9058ZM33.1538 20.8459C33.9658 20.8459 34.3077 21.5297 34.3077 26.487C34.3077 31.4442 34.0085 32.128 33.1538 32.128C32.2991 32.128 32 31.4442 32 26.487C32 21.487 32.3419 20.8459 33.1538 20.8459ZM13.1966 31.957C13.1966 31.957 13.7094 38.0682 14.5641 40.8032C16.0598 45.5895 19.3504 50.8032 25.6325 50.8032C30.2906 50.8032 34.0513 48.2818 34.0513 43.6664C34.0513 40.4186 31.8718 38.7519 29.735 38.7519C27.1709 38.7519 25.5043 40.4613 25.5043 42.6408C25.5043 44.1365 26.1453 44.8203 26.6581 45.3758C26.9573 45.7177 27.2137 45.9741 27.2137 46.3588C27.2137 46.8716 26.7863 47.1707 26.2308 47.1707C25.2051 47.1707 23.6239 45.4186 23.5385 43.4955C23.3248 36.1451 22.2137 32.128 21.7863 31.3588C20.718 29.3075 19.6068 28.4528 17.1709 27.5553C16.9573 27.4699 16.8718 27.3417 16.8718 27.2562C16.8718 27.128 17 26.9998 17.1709 26.957C19.8632 26.2305 21.1026 24.4784 21.1026 21.9143C21.1026 17.3844 17.5556 15.3758 12.9829 15.3758H3.79487C2.51282 15.3758 2 16.0169 2 17.0425C2 17.4699 2.12821 18.0254 2.29915 18.581C2.7265 19.9485 2.81197 22.2562 2.81197 26.487C2.81197 30.7177 2.76923 32.9399 2.29915 34.3929C2.12821 34.9485 2 35.4613 2 35.9314C2 36.957 2.51282 37.5981 3.79487 37.5981H10.547C11.4872 37.5981 12.0427 36.9143 12.0427 35.8459C12.0427 35.2049 11.8291 34.7776 11.5727 34.3075C11.5299 34.222 11.4872 34.0938 11.4444 34.0083C11.1453 33.41 10.8889 32.5126 10.8889 30.8459C10.8889 30.0767 11.188 29.5211 11.8718 29.5211C12.7265 29.5639 12.9829 30.4613 13.1966 31.957V31.957ZM11.5727 20.675C12.3846 20.675 13.2393 21.1878 13.2393 22.5981C13.2393 24.0083 12.3419 24.5639 11.5727 24.5639C11.1026 24.5639 10.8462 24.3929 10.8462 23.8374V21.4015C10.8462 20.8459 11.0171 20.675 11.5727 20.675V20.675ZM47.5128 36.0169C47.5128 35.5895 47.641 35.2476 47.7692 34.9058C48.1111 34.0083 48.3675 32.9827 48.3675 31.4442V31.0169C48.3675 30.0767 48.2393 29.4784 47.7265 28.4955C46.5299 26.2305 45.2906 23.9656 43.5812 21.0169C43.2821 20.5041 42.9829 20.0767 42.7692 19.7348C42.2137 18.9229 41.8291 18.41 41.8291 17.3844C41.8291 16.5297 42.4274 15.4186 44.0085 15.4186H51.9145C53.1538 15.4186 53.7949 16.3588 53.7949 17.2562C53.7949 18.0682 53.5812 18.4955 53.3675 18.9229C53.1966 19.2647 53.0256 19.5639 53.0256 20.034C53.0256 20.675 53.1966 21.0596 53.453 21.6579C53.6667 22.128 53.8803 22.4699 54.1795 22.4699C54.4786 22.4699 54.6068 22.2562 54.906 21.6579C55.2051 21.0596 55.3761 20.5895 55.3761 20.034C55.3761 19.5211 55.2479 19.0938 55.1197 18.6664C54.9915 18.2391 54.8632 17.8117 54.8632 17.2989C54.8632 16.0596 55.7179 15.3758 56.7863 15.3758H61.3162C62.3846 15.3758 63.1111 16.1023 63.1111 17.2135C63.1111 18.1536 62.7265 18.6664 62.1709 19.4357C61.8718 19.8203 61.5299 20.3331 61.1453 20.9741C60.5043 21.9998 59.8632 23.2391 59.2222 24.3929C59.0085 24.7348 58.8376 25.1194 58.6667 25.4613C58.5812 25.5895 58.5385 25.7177 58.453 25.8032C57.4274 27.6835 56.6581 29.0938 56.6581 30.9741V31.4015C56.6581 32.9399 56.9573 33.9656 57.2564 34.863C57.3846 35.2049 57.5128 35.5468 57.5128 36.0169C57.5128 36.957 56.9145 37.5981 55.9316 37.5981H49.0513C48.1111 37.5981 47.5128 36.957 47.5128 36.0169V36.0169ZM59.6496 34.3929C59.4359 34.8203 59.3504 35.2904 59.3504 35.7177C59.3504 36.7861 59.9915 37.6408 61.3162 37.6408H66.359C67.4274 37.6408 67.8974 36.7861 67.8974 35.9741C67.8974 35.675 67.812 35.4186 67.7265 35.1622C67.5128 34.6921 67.4274 34.222 67.4274 33.8801C67.4274 33.3246 67.7265 32.9399 68.2393 32.8972C68.7949 32.8545 68.8803 32.8545 69.4359 32.8972C69.9915 32.9399 70.2051 33.2818 70.2051 33.7519C70.2051 34.0938 70.0769 34.5639 69.8632 35.034C69.735 35.3331 69.6496 35.675 69.6496 35.9741C69.6496 36.8288 70.1624 37.6408 71.359 37.6408H78.7949C79.906 37.6408 80.6752 36.7434 80.6752 35.6323C80.6752 35.2904 80.5897 34.9058 80.4188 34.5211C79.2222 31.7861 76.188 23.1536 74.5214 18.0682C73.8376 16.0169 72.641 15.3758 71.0598 15.3758H68.3675C66.8291 15.3758 65.7607 16.0169 65.0769 18.1536C63.6667 22.8545 61.4017 30.1622 59.6496 34.3929V34.3929ZM69.8205 26.9143C69.8632 27.1707 69.6923 27.2562 69.4359 27.2562H68.1538C67.9829 27.2562 67.8547 27.1707 67.8974 26.9998L67.9829 26.5724C68.1966 25.6323 68.3675 24.6494 68.453 24.3075C68.5385 24.0511 68.6239 23.9229 68.8376 23.9229C69.0513 23.9229 69.1368 24.0511 69.2222 24.3075C69.3504 24.6494 69.6923 25.9314 69.8205 26.9143ZM81.4017 35.9741C81.4017 35.5041 81.5299 34.9912 81.7009 34.4357C82.1282 32.9827 82.2137 30.7605 82.2137 26.5297C82.2137 22.2989 82.1282 19.9912 81.7009 18.6237C81.5299 18.0682 81.4017 17.5126 81.4017 17.0852C81.4017 16.0596 81.9145 15.4186 83.1966 15.4186H89.4359C90.8462 15.4186 91.5727 16.1023 91.5727 17.1707C91.5727 17.94 91.3162 18.41 90.9744 19.0083C90.6325 19.6066 90.2906 20.4613 90.2479 21.6152C90.1624 22.8972 90.1624 24.222 90.1624 25.5041C90.1624 26.957 90.2051 28.41 90.2479 29.9058C90.3333 31.0169 90.8034 31.6152 91.9145 31.6152C92.9402 31.6152 93.4103 30.9314 93.9231 30.2476C94.4359 29.5211 94.9487 28.7519 96.2308 28.7519C98.1111 28.7519 98.6667 29.9912 98.4103 31.4015C98.1966 32.4699 98.0684 33.581 97.9829 34.9058C97.8974 36.7434 97.0427 37.6835 95.2051 37.6835H83.3675C82.0855 37.5981 81.4017 36.9998 81.4017 35.9741V35.9741ZM104.35 34.3929C104.179 34.9485 104.051 35.4613 104.051 35.9314C104.051 36.957 104.564 37.5981 105.846 37.5981H112.043C113.453 37.5981 114.009 36.9143 114.009 35.8459C114.009 35.1194 113.795 34.6066 113.496 34.0083C113.111 33.1964 112.855 32.3417 112.855 30.7177C112.855 29.6066 113.325 29.3502 114.094 29.3502C118.838 29.3502 122.085 27.5126 122.085 22.5126C122.085 17.5126 118.795 15.3331 114.222 15.3331H105.803C104.521 15.3331 104.009 15.9741 104.009 16.9998C104.009 17.4271 104.137 17.9827 104.308 18.5382C104.735 19.9058 104.821 22.2135 104.821 26.4442C104.821 30.675 104.778 32.9399 104.35 34.3929V34.3929ZM113.581 20.675C114.393 20.675 115.248 21.1878 115.248 22.5981C115.248 24.0083 114.35 24.5639 113.581 24.5639C113.111 24.5639 112.855 24.3929 112.855 23.8374V21.4015C112.855 20.8459 113.068 20.675 113.581 20.675V20.675ZM122.897 35.9741C122.897 35.5041 123.026 34.9912 123.197 34.4357C123.624 32.9827 123.709 30.7605 123.709 26.5297C123.709 22.2989 123.624 19.9912 123.197 18.6237C123.026 18.0682 122.897 17.5126 122.897 17.0852C122.897 16.0596 123.41 15.4186 124.692 15.4186H135.547C137.641 15.4186 138.538 16.1878 138.538 17.5981C138.538 18.2818 138.667 19.2647 138.838 19.9058C139.265 21.3588 138.368 22.6835 136.786 22.6835C135.761 22.6835 135.205 22.2562 134.65 21.8288C134.137 21.4442 133.667 21.1023 132.94 21.1023C132.299 21.1023 131.744 21.5297 131.744 22.4271C131.744 23.3246 132.342 23.7092 133.154 23.7092C133.667 23.7092 133.923 23.6237 134.179 23.4955C134.436 23.41 134.692 23.2818 135.248 23.2818C136.615 23.2818 137.342 24.3929 137.342 26.1878C137.342 27.9827 136.615 29.3502 135.248 29.3502C134.692 29.3502 134.436 29.1793 134.179 29.0083C133.923 28.8374 133.667 28.6664 133.154 28.6664C132.427 28.6664 131.744 29.0938 131.744 29.9485C131.744 30.9741 132.427 31.4442 133.453 31.4442C134.778 31.4442 135.333 30.8887 135.846 30.3758C136.316 29.9058 136.829 29.4357 137.855 29.4357C139.521 29.4357 140.205 30.675 139.906 32.2135C139.735 33.0254 139.65 34.0083 139.65 34.8203C139.65 36.6579 138.453 37.5981 136.231 37.5981H124.65C123.41 37.5981 122.897 36.9998 122.897 35.9741V35.9741ZM141.103 34.3929C140.932 34.9485 140.803 35.4613 140.803 35.9314C140.803 36.957 141.316 37.5981 142.598 37.5981H148.795C150.205 37.5981 150.761 36.9143 150.761 35.8459C150.761 35.3758 150.547 34.863 150.376 34.3502C150.333 34.222 150.248 34.0511 150.205 33.9229C149.906 33.0682 149.65 31.8716 149.65 30.8459C149.65 30.0767 149.949 29.5211 150.718 29.5211C151.402 29.5211 151.829 30.034 151.829 31.1451C151.829 32.3844 151.786 33.2818 151.786 34.0083C151.786 34.5211 151.744 34.9485 151.744 35.3758C151.744 36.8288 152.556 37.5553 154.179 37.5553H158.923C160.675 37.5553 161.316 36.7006 161.316 35.5041C161.316 34.863 161.145 34.4784 160.932 33.9229C160.803 33.581 160.632 33.1536 160.462 32.5981C159.778 30.2904 159.051 28.4528 157.171 27.4271C156.915 27.2989 156.829 27.1707 156.829 26.9998C156.829 26.8716 156.957 26.7434 157.171 26.6579C158.581 25.9741 159.906 24.5639 159.906 21.7861C159.906 17.2562 156.359 15.2476 151.786 15.2476H142.641C141.359 15.2476 140.846 15.8887 140.846 16.9143C140.846 17.3417 140.974 17.8972 141.145 18.4528C141.573 19.8203 141.658 22.128 141.658 26.3588C141.658 30.5895 141.53 32.9399 141.103 34.3929V34.3929ZM150.333 20.675C151.145 20.675 152 21.1878 152 22.5981C152 24.0083 151.103 24.5639 150.333 24.5639C149.863 24.5639 149.607 24.3929 149.607 23.8374V21.4015C149.607 20.8459 149.821 20.675 150.333 20.675V20.675ZM161.957 35.9741C161.957 35.5041 162.085 34.9912 162.256 34.4357C162.684 32.9827 162.769 30.7605 162.769 26.5297C162.769 22.2989 162.684 19.9912 162.256 18.6237C162.085 18.0682 161.957 17.5126 161.957 17.0852C161.957 16.0596 162.47 15.4186 163.752 15.4186H169.991C171.231 15.4186 171.829 16.1451 171.829 17.0852C171.829 17.5981 171.701 17.9827 171.487 18.6237C171.103 19.7776 171.017 20.8887 171.017 23.5382C171.017 23.8374 171.188 24.0511 171.444 24.0511C171.615 24.0511 171.786 23.9656 172 23.7519C173.154 22.5126 173.538 21.957 174.308 20.8032C174.521 20.5041 174.65 20.034 174.65 19.6066C174.65 19.0083 174.436 18.6664 174.265 18.3246C174.094 17.9827 173.88 17.6408 173.88 17.0852C173.88 16.2305 174.436 15.4186 175.675 15.4186H181.957C183.026 15.4186 183.538 16.2305 183.538 17.0852C183.538 17.6408 183.368 18.2391 182.427 19.1365C181.145 20.3331 179.863 21.9143 178.538 23.5382C178.368 23.7519 178.239 24.0511 178.239 24.3502C178.239 24.5211 178.282 24.7348 178.368 24.9058C179.735 28.0254 182.769 33.4528 183.923 34.8203C184.222 35.2476 184.436 35.7605 184.436 36.2305C184.436 36.9998 183.88 37.6835 182.641 37.6835H174.863C173.838 37.6835 173.325 36.6152 173.239 35.2904C173.197 33.6237 172.684 31.6579 172.043 29.9058C171.915 29.6066 171.744 29.4784 171.53 29.4784C171.231 29.4784 171.017 29.6921 171.017 30.1194C171.017 31.1023 171.103 32.5553 171.444 33.8374C171.615 34.5639 171.786 35.2049 171.786 36.0169C171.786 36.957 171.188 37.6835 169.991 37.6835H163.709C162.47 37.5981 161.957 36.9998 161.957 35.9741V35.9741ZM185.162 33.581C185.162 35.2904 185.162 36.6152 187.385 37.3844C188.966 37.9399 190.376 38.0682 192.897 38.0682C199.009 38.0682 202 34.9912 202 30.5468C202 26.4015 200.077 24.5211 195.718 23.0682C193.667 22.3844 193.239 22.0425 193.239 21.5297C193.239 21.1023 193.581 20.8459 194.179 20.8459C194.863 20.8459 195.462 21.1451 196.829 22.5126C197.47 23.1964 198.239 23.4528 199.009 23.4528C200.12 23.4528 201.06 22.769 201.06 21.487C201.06 21.1878 201.017 20.9314 200.932 20.6323C200.504 19.1793 200.376 18.4528 200.248 17.2989C199.949 15.2476 197.214 14.9485 193.667 14.9485C188.923 14.9485 185.205 17.2135 185.205 21.8288C185.205 26.4442 188.154 28.3246 190.761 29.222C193.197 30.0767 193.538 30.4186 193.538 31.0169C193.538 31.5724 193.111 31.8288 192.47 31.8288C191.316 31.8288 190.12 31.2733 189.051 29.7776C188.496 29.0511 187.812 28.7519 187.171 28.7519C186.06 28.7519 185.034 29.6066 185.034 30.8032C185.034 30.9314 185.034 31.0596 185.077 31.2305C185.205 32.0852 185.205 32.8545 185.162 33.581V33.581Z" clip-rule="evenodd" fill-rule="evenodd"></path>
<path fill="#F5EBDC" d="M41.017 3.36752L39.564 4.39316L38.111 5.4188C37.8973 5.58974 37.6409 5.63248 37.3845 5.58974C37.1281 5.54701 36.9144 5.46154 36.7007 5.24786L35.4187 3.83761L34.1366 2.42735C33.8802 2.12821 33.5383 2 33.1965 2C32.8546 2 32.5127 2.12821 32.2563 2.42735L30.9742 3.83761L29.6922 5.24786C29.5212 5.46154 29.2648 5.54701 29.0084 5.58974C28.752 5.63248 28.4956 5.54701 28.2819 5.4188L26.8289 4.39316L25.3759 3.36752C24.9913 3.11111 24.564 3.11111 24.2221 3.32479C23.8802 3.53846 23.6665 3.88034 23.7093 4.35043L24.1366 8.53846L24.564 12.7265C24.6067 12.9829 24.7349 13.2393 24.9059 13.4103C25.0768 13.5812 25.3332 13.6667 25.6324 13.6667H40.7606C41.017 13.6667 41.2734 13.5812 41.4871 13.4103C41.658 13.2393 41.7862 12.9829 41.8289 12.7265L42.2563 8.53846L42.6836 4.35043C42.7264 3.88034 42.5127 3.53846 42.1708 3.32479C41.7862 3.11111 41.3589 3.11111 41.017 3.36752V3.36752Z"></path>
</svg>
